<?xml version="1.0" encoding="utf-8"?>
<!-- Generator: Adobe Illustrator 26.0.3, SVG Export Plug-In . SVG Version: 6.00 Build 0)  -->
<svg version="1.1" id="Ebene_1" xmlns="http://www.w3.org/2000/svg" xmlns:xlink="http://www.w3.org/1999/xlink" x="0px" y="0px"
	 viewBox="0 0 522 60" style="enable-background:new 0 0 522 60;" xml:space="preserve">
<g>
	<path d="M0,1h35.2c12,0,17.2,8,17.2,14.8c0,7.2-4.3,12.1-9.9,13.3c6.3,1,11,6.7,11,14.2c0,8.1-5.5,15.7-17.1,15.7H0V1z M31.1,22.5
		c1.8,0,3.5-1.6,3.5-3.7c0-2-1.7-3.6-3.5-3.6H17.5v7.3H31.1z M31.6,44.6c2.5,0,4.1-1.7,4.1-3.9c0-2.1-1.6-4-4.1-4H17.5v7.9H31.6z"/>
	<path d="M84.4,40.3h-6.3v18.6H60.5V1h30.9c13.5,0,20.8,9,20.8,19.9c0,10-5.8,15.3-10.4,17.5l10.5,20.5h-20L84.4,40.3z M88.7,15.5
		H78.1v10.2h10.7c3,0,5.7-1.9,5.7-5.1C94.5,17.5,91.7,15.5,88.7,15.5z"/>
	<path d="M156.6,51.4h-22.2l-2.3,7.5h-19L134.5,1h22.1l21.4,57.9h-19L156.6,51.4z M138.9,36.8h13.2l-6.6-20.4L138.9,36.8z"/>
	<path d="M198.6,27.8v31.1H181V1h18.1l20.1,29.2V1h17.5v57.9h-16.8L198.6,27.8z"/>
	<path d="M246.2,1H272c18.2,0,31.8,10.4,31.8,28.9s-13.5,29-31.7,29h-26V1z M272,43.6c8.8,0,14-6.4,14-13.7
		c0-7.8-4.5-13.6-13.9-13.6h-8.4v27.4H272z"/>
	<path d="M312.6,1h23.8c9.6,0,16,5.6,16,14.8c0,7.3-4.9,12.2-10.2,13.3c6.2,1,11.3,7.5,11.3,14.2c0,9.6-6.3,15.6-16.7,15.6h-24.2V1z
		 M335.8,26.9c7.5,0,11.4-4.7,11.4-10.7c0-5.9-3.9-10.8-11.4-10.8h-18.2v21.4H335.8z M336.1,54.4c7.6,0,12.2-4.4,12.2-11.5
		c0-5.9-4.1-11.5-12.2-11.5h-18.6v22.9H336.1z"/>
	<path d="M365.9,1h4.9v53.4h28v4.5h-33V1z"/>
	<path d="M432.4,0c16.9,0,28.1,13,28.1,30s-11.2,30-28.1,30c-17,0-28.1-13-28.1-30S415.4,0,432.4,0z M432.4,4.5
		c-14.1,0-22.9,10.8-22.9,25.4c0,14.6,8.9,25.4,22.9,25.4c13.9,0,22.9-10.9,22.9-25.4C455.4,15.3,446.3,4.5,432.4,4.5z"/>
	<path d="M500,0c9.6,0,16.5,3.8,21.8,9.9l-3.7,2.7C514,7.7,507.4,4.5,500,4.5c-13.6,0-24.1,10.3-24.1,25.4
		c0,14.9,10.5,25.5,24.1,25.5c7.7,0,13.8-3.8,17-7V34.6h-22v-4.5H522v20.2c-5.2,5.7-12.9,9.6-22,9.6c-16.3,0-29.3-12.2-29.3-30
		S483.7,0,500,0z"/>
</g>
</svg>
